<?xml version="1.0" standalone="no"?>
<!DOCTYPE svg PUBLIC "-//W3C//DTD SVG 20010904//EN"
 "http://www.w3.org/TR/2001/REC-SVG-20010904/DTD/svg10.dtd">
<svg version="1.0" xmlns="http://www.w3.org/2000/svg"
 width="1280.000000pt" height="640.000000pt" viewBox="0 0 1280.000000 640.000000"
 preserveAspectRatio="xMidYMid meet">
<g transform="translate(0.000000,640.000000) scale(0.100000,-0.100000)"
fill="#000000" stroke="none">
<path d="M3325 5920 c-104 -22 -162 -56 -439 -254 -1808 -1295 -2669 -1919
-2722 -1972 -70 -70 -113 -150 -144 -266 -25 -97 -25 -115 1 -218 26 -105 64
-181 126 -250 36 -40 2636 -2178 2878 -2366 96 -75 210 -114 334 -114 153 0
281 52 385 155 100 99 166 251 166 385 0 125 -57 272 -140 364 -28 29 -390
332 -805 672 -416 339 -754 622 -752 628 3 8 1471 12 5078 16 4216 4 5081 7
5114 18 124 42 252 145 313 253 41 72 85 238 79 293 -27 241 -178 431 -402
507 -33 12 -871 15 -5123 19 -3376 3 -5083 8 -5084 15 -1 6 352 264 784 575
432 311 798 575 813 587 46 38 119 136 144 192 129 301 -17 634 -325 742 -66
23 -215 33 -279 19z"/>
</g>
</svg>
